<svg width="94" height="529" xmlns="http://www.w3.org/2000/svg" xmlns:xlink="http://www.w3.org/1999/xlink" xml:space="preserve" overflow="hidden"><defs><clipPath id="clip0"><rect x="634" y="-70" width="94" height="529"/></clipPath></defs><g clip-path="url(#clip0)" transform="translate(-634 70)"><path d="M124.23 47.0595C124.23 73.0497 103.16 94.119 77.17 94.119 51.1798 94.119 30.1105 73.0497 30.1105 47.0595 30.1105 21.0692 51.1798-8.35944e-15 77.17-1.67189e-14 103.16-3.34378e-14 124.23 21.0692 124.23 47.0595Z" fill="#262626" transform="matrix(-1.84371e-16 -1.00367 1 -1.83697e-16 634 459)"/><path d="M308.718 47.0595C308.718 73.0497 287.648 94.119 261.658 94.119 235.668 94.119 214.599 73.0497 214.599 47.0595 214.599 21.0692 235.668-8.35944e-15 261.658-1.67189e-14 287.648-3.34378e-14 308.718 21.0692 308.718 47.0595Z" fill="#262626" transform="matrix(-1.84371e-16 -1.00367 1 -1.83697e-16 634 459)"/><path d="M496.956 47.0595C496.956 73.0497 475.886 94.119 449.896 94.119 423.906 94.119 402.837 73.0497 402.837 47.0595 402.837 21.0692 423.906-8.35944e-15 449.896-1.67189e-14 475.886-3.34378e-14 496.956 21.0692 496.956 47.0595Z" fill="#262626" transform="matrix(-1.84371e-16 -1.00367 1 -1.83697e-16 634 459)"/></g></svg>